<svg xmlns="http://www.w3.org/2000/svg">
  <symbol id="accuweather" viewBox="0 0 32 32"><circle cx="16" cy="16" r="6" fill="#FF8A3D"/><g stroke="#FF8A3D" stroke-width="2.4" stroke-linecap="round"><path d="M16 3v4M16 25v4M3 16h4M25 16h4M6.8 6.8l2.8 2.8M22.4 22.4l2.8 2.8M25.2 6.8l-2.8 2.8M9.6 22.4l-2.8 2.8"/></g></symbol>
  <symbol id="altcodes" viewBox="0 0 32 32"><rect x="3" y="5" width="26" height="22" rx="5" fill="#23403D"/><path d="M12.5 11 7.5 16l5 5M19.5 11l5 5-5 5" fill="none" stroke="#FFF9F1" stroke-width="2.5" stroke-linecap="round" stroke-linejoin="round"/><path d="m18 9-4 14" stroke="#7ED6F7" stroke-width="2" stroke-linecap="round"/></symbol>
  <symbol id="athleanx" viewBox="0 0 32 32"><g fill="none" stroke="#2F7D4A" stroke-width="3" stroke-linecap="round"><path d="M10 16h12M7 12v8M4.5 13.5v5M25 12v8M27.5 13.5v5"/><path d="M12 10c1.5-2 6.5-2 8 0M12 22c1.5 2 6.5 2 8 0" stroke="#2CB5C9" stroke-width="2"/></g></symbol>
  <symbol id="bible" viewBox="0 0 32 32"><path d="M6 6.5c4.2-1.2 7.4-.4 10 2.1v18c-2.6-2.4-5.8-3.1-10-2V6.5Z" fill="#7BC96F"/><path d="M26 6.5c-4.2-1.2-7.4-.4-10 2.1v18c2.6-2.4 5.8-3.1 10-2V6.5Z" fill="#2F7D4A"/><path d="M16 8.6v18" stroke="#FFF9F1" stroke-width="1.5"/><path d="M21 11v8M18.5 14h5" stroke="#FFF9F1" stroke-width="2" stroke-linecap="round"/></symbol>
  <symbol id="calendarbridge" viewBox="0 0 32 32"><rect x="3" y="6" width="12" height="12" rx="3" fill="#2CB5C9"/><rect x="17" y="14" width="12" height="12" rx="3" fill="#FF8A3D"/><path d="M12 24h5l-2-2M20 8h-5l2 2" fill="none" stroke="#2F7D4A" stroke-width="2.4" stroke-linecap="round" stroke-linejoin="round"/><path d="M6 10h6M20 18h6" stroke="#FFF9F1" stroke-width="1.6" stroke-linecap="round"/></symbol>
  <symbol id="calendly" viewBox="0 0 32 32"><circle cx="16" cy="16" r="13" fill="#2CB5C9"/><circle cx="16" cy="16" r="8" fill="none" stroke="#FFF9F1" stroke-width="2.5"/><path d="M16 11v5l4 2" fill="none" stroke="#FFF9F1" stroke-width="2.4" stroke-linecap="round" stroke-linejoin="round"/></symbol>
  <symbol id="compass" viewBox="0 0 32 32"><circle cx="16" cy="16" r="13" fill="#7ED6F7" stroke="#23403D" stroke-width="1.5"/><path d="m20.5 11.5-3 7-7 3 3-7 7-3Z" fill="#FF8A3D" stroke="#23403D" stroke-width="1.4" stroke-linejoin="round"/><circle cx="16" cy="16" r="1.6" fill="#23403D"/></symbol>
  <symbol id="disneyplus" viewBox="0 0 32 32"><path d="M5 21c3-7 9-11 18-11 2 0 3.5.3 4.5.6" fill="none" stroke="#7ED6F7" stroke-width="2.2" stroke-linecap="round"/><path d="M8 22h10c4 0 7-2.2 7-5.5S22 11 18 11H8v11Z" fill="#2CB5C9"/><path d="M18 14v5" stroke="#FFF9F1" stroke-width="2" stroke-linecap="round"/><path d="M15.5 16.5h5" stroke="#FFF9F1" stroke-width="2" stroke-linecap="round"/></symbol>
  <symbol id="eggtimer" viewBox="0 0 32 32"><path d="M16 4c5.4 0 9.5 8.5 9.5 15 0 5.4-4.2 9-9.5 9s-9.5-3.6-9.5-9C6.5 12.5 10.6 4 16 4Z" fill="#FFF9F1" stroke="#FF8A3D" stroke-width="2"/><path d="M16 10v6l3.5 2" fill="none" stroke="#2F7D4A" stroke-width="2.2" stroke-linecap="round" stroke-linejoin="round"/></symbol>
  <symbol id="franco" viewBox="0 0 32 32"><path d="M8 12h15v8a7 7 0 0 1-7 7h-1a7 7 0 0 1-7-7v-8Z" fill="#FF8A3D"/><path d="M23 14h2.5a3.5 3.5 0 0 1 0 7H23" fill="none" stroke="#FF8A3D" stroke-width="2.4"/><path d="M11 8c0-2 2-2 2-4M17 8c0-2 2-2 2-4" fill="none" stroke="#2F7D4A" stroke-width="1.8" stroke-linecap="round"/></symbol>
  <symbol id="gmail" viewBox="0 0 32 32"><rect x="4" y="7" width="24" height="18" rx="4" fill="#FFF9F1" stroke="#EA4335" stroke-width="2"/><path d="m5 9 11 9L27 9" fill="none" stroke="#EA4335" stroke-width="2.7" stroke-linecap="round" stroke-linejoin="round"/><path d="M5 23V11l6 5M27 23V11l-6 5" fill="none" stroke="#2CB5C9" stroke-width="2"/></symbol>
  <symbol id="googlecalendar" viewBox="0 0 32 32"><rect x="4" y="5" width="24" height="23" rx="4" fill="#FFF9F1" stroke="#4285F4" stroke-width="2"/><path d="M4 11h24" stroke="#4285F4" stroke-width="2"/><path d="M10 3v5M22 3v5" stroke="#34A853" stroke-width="3" stroke-linecap="round"/><rect x="9" y="15" width="5" height="4" rx="1" fill="#FBBC05"/><rect x="18" y="15" width="5" height="4" rx="1" fill="#EA4335"/><rect x="9" y="22" width="5" height="3" rx="1" fill="#4285F4"/></symbol>
  <symbol id="googleforms" viewBox="0 0 32 32"><rect x="7" y="4" width="18" height="24" rx="3" fill="#7B61C9"/><path d="M11 10h10M11 15h2M16 15h5M11 20h2M16 20h5" stroke="#FFF9F1" stroke-width="2" stroke-linecap="round"/><circle cx="12" cy="15" r=".8" fill="#FFF9F1"/><circle cx="12" cy="20" r=".8" fill="#FFF9F1"/></symbol>
  <symbol id="heinnie" viewBox="0 0 32 32"><path d="M6 22 22 6l4 4L10 26 5 27l1-5Z" fill="#2F7D4A"/><path d="m19 9 4 4" stroke="#FFF9F1" stroke-width="1.7"/><path d="M6 22l4 4" stroke="#FF8A3D" stroke-width="2"/></symbol>
  <symbol id="myfitnesspal" viewBox="0 0 32 32"><path d="M16 27C9 22 5.5 18.2 5.5 13.5A5.5 5.5 0 0 1 16 11a5.5 5.5 0 0 1 10.5 2.5C26.5 18.2 23 22 16 27Z" fill="#2CB5C9"/><path d="M9 17h4l2-5 3 9 2-4h3" fill="none" stroke="#FFF9F1" stroke-width="2" stroke-linecap="round" stroke-linejoin="round"/></symbol>
  <symbol id="nehemiah" viewBox="0 0 32 32"><rect x="4" y="17" width="24" height="10" rx="2" fill="#2F7D4A"/><path d="M4 22h24M10 17v5M20 17v5M15 22v5M25 22v5" stroke="#FFF9F1" stroke-width="1.5" opacity=".9"/><path d="M16 5v10M12.5 9h7" stroke="#FF8A3D" stroke-width="2.5" stroke-linecap="round"/></symbol>
  <symbol id="netflix" viewBox="0 0 32 32"><rect x="6" y="5" width="20" height="22" rx="4" fill="#23403D"/><path d="m12 9 9 7-9 7V9Z" fill="#E50914"/></symbol>
  <symbol id="outlook" viewBox="0 0 32 32"><rect x="8" y="7" width="20" height="18" rx="3" fill="#2CB5C9"/><path d="m9 9 9 8 9-8" fill="none" stroke="#FFF9F1" stroke-width="2"/><rect x="4" y="10" width="12" height="14" rx="3" fill="#2672EC"/><circle cx="10" cy="17" r="3" fill="none" stroke="#FFF9F1" stroke-width="2"/></symbol>
  <symbol id="spotify" viewBox="0 0 32 32"><circle cx="16" cy="16" r="14" fill="#1ED760"/><path d="M8.5 12.2c5.4-1.5 11.6-.9 15.2 1.1M9.8 16.7c4.4-1.1 9.5-.6 12.6.9M10.8 20.8c3.5-.8 7.4-.4 10 1" fill="none" stroke="#142018" stroke-width="2.3" stroke-linecap="round"/></symbol>
  <symbol id="teams" viewBox="0 0 32 32"><rect x="7" y="10" width="17" height="15" rx="4" fill="#6264A7"/><circle cx="12" cy="8" r="4" fill="#7B83EB"/><circle cx="24" cy="10" r="3" fill="#7B83EB"/><path d="M11 15h9M15.5 15v7" stroke="#FFF9F1" stroke-width="2.2" stroke-linecap="round"/></symbol>
  <symbol id="whatsapp" viewBox="0 0 32 32"><circle cx="16" cy="15" r="11" fill="#25D366"/><path d="m8 27 2-6" stroke="#25D366" stroke-width="4" stroke-linecap="round"/><path d="M12 10c1 5 4 8 9 10 1 .4 2-.5 2.5-2l-3-2-2 1c-2-1-3-2-4-4l1-2-2-3c-1.5.5-2.2 1-1.5 2Z" fill="#FFF9F1"/></symbol>
  <symbol id="youtube" viewBox="0 0 32 32"><rect x="3" y="8" width="26" height="17" rx="6" fill="#FF0000"/><path d="m14 12 8 4.5-8 4.5v-9Z" fill="#FFF9F1"/></symbol>
</svg>