<svg xmlns="http://www.w3.org/2000/svg">
  <symbol id="chatgpt" viewBox="0 0 32 32"><circle cx="16" cy="16" r="12" fill="#2F7D4A"/><path d="M16 8c4-2 7 1 6 4 3 1 4 5 1 7 1 4-3 7-6 5-3 3-7 1-7-2-4 0-6-4-4-7-2-3 1-7 4-7 1-4 5-5 6-2Z" fill="none" stroke="#FFF9F1" stroke-width="1.7" stroke-linejoin="round"/></symbol>
  <symbol id="claude" viewBox="0 0 32 32"><circle cx="16" cy="16" r="5" fill="#FF8A3D"/><g stroke="#FF8A3D" stroke-width="2.2" stroke-linecap="round"><path d="M16 3v6M16 23v6M3 16h6M23 16h6M6.8 6.8l4.2 4.2M21 21l4.2 4.2M25.2 6.8 21 11M11 21l-4.2 4.2"/></g></symbol>
  <symbol id="perplexity" viewBox="0 0 32 32"><path d="M16 4 27 12v8l-11 8L5 20v-8L16 4Z" fill="none" stroke="#2CB5C9" stroke-width="2"/><path d="M5 12h22M16 4v24M5 20l11-8 11 8" fill="none" stroke="#23403D" stroke-width="1.6"/></symbol>
  <symbol id="mynoise" viewBox="0 0 32 32"><rect x="4" y="6" width="24" height="20" rx="6" fill="#7ED6F7"/><path d="M7 17c2.5-7 5 7 7 0s5 7 7 0 3-4 4 0" fill="none" stroke="#23403D" stroke-width="2.2" stroke-linecap="round"/></symbol>
  <symbol id="flightradar24" viewBox="0 0 32 32"><circle cx="16" cy="16" r="12" fill="none" stroke="#2CB5C9" stroke-width="1.8"/><circle cx="16" cy="16" r="7" fill="none" stroke="#7BC96F" stroke-width="1.4"/><path d="M16 16 25 10" stroke="#FF8A3D" stroke-width="2"/><path d="m9 18 6-3 2-6 2 1-1 5 5 2-1 2-5-1-3 5-2-1 1-5-4 2Z" fill="#23403D"/></symbol>
  <symbol id="booking" viewBox="0 0 32 32"><rect x="5" y="8" width="22" height="17" rx="4" fill="#2CB5C9"/><path d="M8 19h16M9 15h6a3 3 0 0 1 3 3v1H9v-4Z" fill="#FFF9F1"/><path d="M8 12h5" stroke="#FFF9F1" stroke-width="2" stroke-linecap="round"/></symbol>
  <symbol id="skiplagged" viewBox="0 0 32 32"><path d="M5 23c7-10 13-13 22-14" fill="none" stroke="#2CB5C9" stroke-width="2" stroke-dasharray="3 3"/><path d="m18 12 8-4-4 8-2-2-4 2-1-1 3-3Z" fill="#FF8A3D"/></symbol>
  <symbol id="pimeyes" viewBox="0 0 32 32"><path d="M4 16c3.5-6 7.5-9 12-9s8.5 3 12 9c-3.5 6-7.5 9-12 9S7.5 22 4 16Z" fill="#7ED6F7" stroke="#23403D" stroke-width="1.5"/><circle cx="16" cy="16" r="5" fill="#2F7D4A"/><circle cx="17.5" cy="14.5" r="1.5" fill="#FFF9F1"/></symbol>
  <symbol id="osintframework" viewBox="0 0 32 32"><circle cx="10" cy="10" r="3.5" fill="#2CB5C9"/><circle cx="23" cy="9" r="3.5" fill="#FF8A3D"/><circle cx="16" cy="23" r="4" fill="#2F7D4A"/><path d="m12.5 12.5 2.5 7M20.5 12l-3 7M13.5 10h6" stroke="#23403D" stroke-width="1.8"/><circle cx="24" cy="23" r="4" fill="none" stroke="#23403D" stroke-width="1.8"/><path d="m27 26 3 3" stroke="#23403D" stroke-width="2" stroke-linecap="round"/></symbol>
  <symbol id="musclewiki" viewBox="0 0 32 32"><path d="M7 18c3-5 5-6 8-4l3-6 3 2-2 5c4-1 7 2 6 6-1 5-6 7-11 5-4-1-6-4-7-8Z" fill="#2F7D4A"/><path d="M12 19c3 1 6 0 8-3" fill="none" stroke="#FFF9F1" stroke-width="1.8" stroke-linecap="round"/></symbol>
  <symbol id="makemeacocktail" viewBox="0 0 32 32"><path d="M7 7h18L17 18v7h5v2H10v-2h5v-7L7 7Z" fill="#FF8A3D"/><path d="M10 10h12" stroke="#FFF9F1" stroke-width="1.8"/><circle cx="23" cy="7" r="3" fill="#7BC96F"/></symbol>
  <symbol id="explore" viewBox="0 0 32 32"><circle cx="11" cy="18" r="7" fill="none" stroke="#2F7D4A" stroke-width="3"/><circle cx="21" cy="18" r="7" fill="none" stroke="#2F7D4A" stroke-width="3"/><path d="M14 18h4M9 11l2-5M23 11l-2-5" stroke="#FF8A3D" stroke-width="2" stroke-linecap="round"/></symbol>
  <symbol id="vesselfinder" viewBox="0 0 32 32"><path d="M7 14h18l-2 8c-2 4-12 4-14 0l-2-8Z" fill="#2CB5C9"/><path d="M12 14V8h8v6M10 24c3 2 9 2 12 0" fill="none" stroke="#23403D" stroke-width="1.8"/><path d="M5 27c2-1 4-1 6 0s4 1 6 0 4-1 6 0 4 1 6 0" fill="none" stroke="#7BC96F" stroke-width="1.8" stroke-linecap="round"/></symbol>
  <symbol id="signalbox" viewBox="0 0 32 32"><rect x="6" y="4" width="6" height="24" rx="2" fill="#23403D"/><circle cx="9" cy="9" r="2.4" fill="#EA4335"/><circle cx="9" cy="16" r="2.4" fill="#FBBC05"/><circle cx="9" cy="23" r="2.4" fill="#34A853"/><path d="M17 25h11M19 22l7-8M24 22l-4-7" fill="none" stroke="#2CB5C9" stroke-width="2" stroke-linecap="round"/></symbol>
  <symbol id="deskspacing" viewBox="0 0 32 32"><rect x="5" y="12" width="22" height="4" rx="1.5" fill="#FF8A3D"/><path d="M8 16v11M24 16v11" stroke="#23403D" stroke-width="2.3"/><rect x="9" y="6" width="14" height="7" rx="2" fill="#7ED6F7"/><path d="M16 13v3" stroke="#23403D" stroke-width="2"/></symbol>
  <symbol id="quiverquant" viewBox="0 0 32 32"><rect x="4" y="5" width="24" height="22" rx="4" fill="#FFF9F1" stroke="#2CB5C9" stroke-width="1.5"/><path d="M8 22 13 16l4 3 7-10" fill="none" stroke="#2F7D4A" stroke-width="2.4" stroke-linecap="round" stroke-linejoin="round"/><path d="m21 9 4-1-1 4" fill="none" stroke="#FF8A3D" stroke-width="2"/></symbol>
  <symbol id="edx" viewBox="0 0 32 32"><path d="M5 7c4-1 8 0 11 3v17c-3-3-7-4-11-3V7Z" fill="#2CB5C9"/><path d="M27 7c-4-1-8 0-11 3v17c3-3 7-4 11-3V7Z" fill="#7BC96F"/><path d="M16 10v17" stroke="#FFF9F1" stroke-width="1.5"/><path d="m20 14 4 4m0-4-4 4" stroke="#23403D" stroke-width="2" stroke-linecap="round"/></symbol>
  <symbol id="geekprank" viewBox="0 0 32 32"><rect x="4" y="6" width="24" height="20" rx="4" fill="#23403D"/><path d="m8 12 4 4-4 4M15 20h8" fill="none" stroke="#7BC96F" stroke-width="2.2" stroke-linecap="round" stroke-linejoin="round"/></symbol>
  <symbol id="hacksplaining" viewBox="0 0 32 32"><path d="M16 4 26 8v7c0 7-4 11-10 13C10 26 6 22 6 15V8l10-4Z" fill="#2F7D4A"/><path d="m12 12-3 4 3 4M20 12l3 4-3 4M18 10l-4 12" fill="none" stroke="#FFF9F1" stroke-width="1.8" stroke-linecap="round" stroke-linejoin="round"/></symbol>
</svg>